# xmcd CD database file
# Copyright (C) 1996 Ti Kan
#
# Track frame offsets:
#  150
#  10890
#  20365
#  32597
#  48165
#  58785
#  70087
#  80985
#  96387
#  105542
#
# Disc length: 1581 seconds
#
# Revision: 1
# Processed by: cddbd v1.4b41PL1 Copyright (c) Steve Scherf et al.
# Submitted via: CDWizzard Release:4.13
#
DISCID=7c062b0a
DTITLE=Jim Reeves - Good 'N' Country
DYEAR=1900
DGENRE=
TTITLE0=Don't Let Me Cross Over
TTITLE1=There's A Heatache Following Me
TTITLE2=The Talking Walls
TTITLE3=Little Ole Dime
TTITLE4=The World You Left Behind
TTITLE5=I've Enjoyed As Much Of This As I Can Stand
TTITLE6=Lonely Music
TTITLE7=Bottle, Take Effect
TTITLE8=You Kept Me Awake Last Night
TTITLE9=Before I Died
EXTD=
EXTT0=
EXTT1=
EXTT2=
EXTT3=
EXTT4=
EXTT5=
EXTT6=
EXTT7=
EXTT8=
EXTT9=
PLAYORDER=
